<?xml version="1.0" encoding="utf-8"?>
<!-- Generator: Adobe Illustrator 14.0.0, SVG Export Plug-In . SVG Version: 6.00 Build 43363)  -->
<!DOCTYPE svg PUBLIC "-//W3C//DTD SVG 1.1//EN" "http://www.w3.org/Graphics/SVG/1.1/DTD/svg11.dtd">
<svg version="1.1" id="Calque_1" xmlns="http://www.w3.org/2000/svg" xmlns:xlink="http://www.w3.org/1999/xlink" x="0px" y="0px"
	 width="38.971px" height="38.977px" viewBox="0 0 38.971 38.977" enable-background="new 0 0 38.971 38.977" xml:space="preserve">
<path fill="#E33225" d="M38.441,6.5c-0.684-0.683-1.873-0.683-2.557,0L13.762,28.623L3.087,17.949
	c-0.683-0.685-1.878-0.683-2.557-0.002C0.188,18.288,0,18.743,0,19.226c0,0.482,0.188,0.938,0.529,1.277l11.95,11.949
	c0.34,0.345,0.795,0.534,1.282,0.534c0.484,0,0.939-0.189,1.278-0.53l23.4-23.399c0.343-0.342,0.529-0.795,0.529-1.278
	S38.783,6.842,38.441,6.5z"/>
</svg>
