<?xml version="1.0" encoding="utf-8"?>
<!-- Generator: Adobe Illustrator 14.0.0, SVG Export Plug-In . SVG Version: 6.00 Build 43363)  -->
<!DOCTYPE svg PUBLIC "-//W3C//DTD SVG 1.1//EN" "http://www.w3.org/Graphics/SVG/1.1/DTD/svg11.dtd">
<svg version="1.1" id="Calque_1" xmlns="http://www.w3.org/2000/svg" xmlns:xlink="http://www.w3.org/1999/xlink" x="0px" y="0px"
	 width="56.693px" height="56.693px" viewBox="0 0 56.693 56.693" enable-background="new 0 0 56.693 56.693" xml:space="preserve">
<g>
	<circle fill="#3C5A9B" cx="28.347" cy="28.347" r="28.347"/>
	<path fill="#FFFFFF" d="M33.393,16.742c1.73,0,4.018,0,4.018,0v-5.995c0,0-2.41,0-5.687,0c-3.275,0-7.541,2.102-7.541,8.221
		c0,1.144,0,2.809,0,4.759h-5.439v6.212h5.439c0,7.735,0,16.163,0,16.163h2.411h1.917h2.164c0,0,0-8.73,0-16.163h5.408l0.896-6.212
		h-6.305c0-2.041,0-3.516,0-3.956C30.674,17.731,31.662,16.742,33.393,16.742z"/>
</g>
</svg>
