<?xml version="1.0" encoding="utf-8"?>
<!-- Generator: Adobe Illustrator 14.0.0, SVG Export Plug-In . SVG Version: 6.00 Build 43363)  -->
<!DOCTYPE svg PUBLIC "-//W3C//DTD SVG 1.1//EN" "http://www.w3.org/Graphics/SVG/1.1/DTD/svg11.dtd">
<svg version="1.1" id="Calque_1" xmlns="http://www.w3.org/2000/svg" xmlns:xlink="http://www.w3.org/1999/xlink" x="0px" y="0px"
	 width="56.693px" height="56.693px" viewBox="0 0 56.693 56.693" enable-background="new 0 0 56.693 56.693" xml:space="preserve">
<g>
	<circle fill="#286991" cx="28.347" cy="28.346" r="28.347"/>
	<path fill="#FFFFFF" d="M37.612,13.229H19.081c-3.219,0-5.853,2.633-5.853,5.852v18.532c0,3.219,2.634,5.853,5.853,5.853h18.531
		c3.22,0,5.853-2.634,5.853-5.853V19.081C43.465,15.862,40.832,13.229,37.612,13.229z M33.577,18.603c0-1.1,0.899-1.999,1.998-1.999
		h1.746c1.099,0,1.999,0.899,1.999,1.999v1.747c0,1.099-0.9,1.998-1.999,1.998h-1.746c-1.099,0-1.998-0.899-1.998-1.998V18.603z
		 M28.347,23.939c2.875,0,5.207,2.331,5.207,5.207c0,2.875-2.331,5.206-5.207,5.206s-5.207-2.331-5.207-5.206
		C23.141,26.271,25.472,23.939,28.347,23.939z M41.026,37.612c0,1.883-1.531,3.414-3.414,3.414H19.081
		c-1.882,0-3.414-1.531-3.414-3.414V25.39h5.358c-0.58,1.126-0.908,2.403-0.908,3.757c0,4.544,3.685,8.23,8.23,8.23
		c4.544,0,8.23-3.686,8.23-8.23c0-1.354-0.329-2.631-0.908-3.757h5.357V37.612z"/>
</g>
</svg>
