<?xml version="1.0" encoding="utf-8"?>
<!-- Generator: Adobe Illustrator 14.0.0, SVG Export Plug-In . SVG Version: 6.00 Build 43363)  -->
<!DOCTYPE svg PUBLIC "-//W3C//DTD SVG 1.1//EN" "http://www.w3.org/Graphics/SVG/1.1/DTD/svg11.dtd">
<svg version="1.1" id="Calque_1" xmlns="http://www.w3.org/2000/svg" xmlns:xlink="http://www.w3.org/1999/xlink" x="0px" y="0px"
	 width="41.515px" height="41.522px" viewBox="0 0 41.515 41.522" enable-background="new 0 0 41.515 41.522" xml:space="preserve">
<path fill="#FFFFFF" d="M24.438,41.522h-7.36c-1.103,0-2-0.897-2-2v-1.547c0-0.125-0.156-0.346-0.273-0.387l-1.686-0.696
	c-0.244-0.112-0.458-0.004-0.517,0.054l-1.094,1.095c-0.755,0.754-2.074,0.753-2.828,0.001l-5.204-5.204
	c-0.778-0.777-0.779-2.046-0.004-2.827l1.093-1.092c0.086-0.086,0.131-0.352,0.077-0.463l-0.706-1.69
	c-0.062-0.171-0.283-0.328-0.409-0.328H2c-1.103,0-2-0.897-2-2v-7.359c0-1.103,0.897-2,2-2h1.517c0.125,0,0.345-0.157,0.386-0.275
	l0.703-1.705c0.078-0.165,0.034-0.429-0.054-0.517L3.477,11.51c-0.377-0.377-0.585-0.879-0.585-1.415
	c0-0.535,0.208-1.037,0.584-1.414L8.68,3.476c0.754-0.754,2.076-0.754,2.829,0.003l1.069,1.07c0.06,0.06,0.389,0.112,0.461,0.079
	l1.711-0.715c0.171-0.062,0.328-0.284,0.328-0.409V2c0-1.103,0.897-2,2-2h7.36c1.103,0,2,0.897,2,2v1.509
	c0,0.125,0.155,0.346,0.272,0.386l1.708,0.708c0.244,0.113,0.456,0.005,0.514-0.053l1.072-1.074c0.759-0.756,2.077-0.754,2.83,0
	l5.202,5.205c0.377,0.377,0.585,0.879,0.585,1.414c0,0.536-0.208,1.038-0.585,1.415l-1.072,1.071
	c-0.09,0.089-0.134,0.353-0.08,0.465l0.707,1.706c0.062,0.17,0.282,0.327,0.408,0.327h1.516c1.103,0,2,0.897,2,2v7.359
	c0,1.103-0.897,2-2,2h-1.528c-0.126,0-0.349,0.158-0.391,0.277l-0.7,1.692c-0.078,0.165-0.034,0.429,0.054,0.517l1.087,1.086
	c0.78,0.779,0.78,2.049,0,2.828l-5.203,5.203c-0.753,0.753-2.072,0.754-2.827,0.001l-1.094-1.093
	c-0.059-0.06-0.395-0.114-0.464-0.078l-1.687,0.698c-0.169,0.061-0.324,0.281-0.324,0.406v1.547
	C26.438,40.625,25.541,41.522,24.438,41.522L24.438,41.522z M24.438,39.522v1V39.522L24.438,39.522L24.438,39.522L24.438,39.522z
	 M12.927,34.846c0.359,0,0.708,0.076,1.009,0.222l1.58,0.652c0.868,0.301,1.562,1.279,1.562,2.255v1.547h7.356l0.004-1.547
	c0-0.975,0.693-1.953,1.611-2.274l1.582-0.655c0.247-0.121,0.596-0.197,0.955-0.197c0.661,0,1.312,0.257,1.741,0.688l1.092,1.091
	l5.203-5.203l-1.087-1.086c-0.69-0.69-0.89-1.873-0.463-2.751l0.657-1.589c0.306-0.868,1.284-1.561,2.257-1.561h1.528v-7.359H38
	c-0.976,0-1.954-0.694-2.276-1.614l-0.663-1.601c-0.402-0.827-0.2-2.01,0.492-2.699l1.07-1.069L31.419,4.89l-1.071,1.073
	c-0.664,0.666-1.897,0.876-2.751,0.463l-1.599-0.663c-0.865-0.298-1.561-1.277-1.561-2.254V2h-7.36v1.504
	c0,0.975-0.693,1.953-1.612,2.275l-1.604,0.67c-0.249,0.123-0.599,0.201-0.96,0.201c-0.66,0-1.31-0.258-1.74-0.69l-1.069-1.07
	l-5.202,5.205l1.074,1.071c0.69,0.689,0.891,1.871,0.466,2.75l-0.659,1.599c-0.302,0.869-1.28,1.563-2.254,1.563H2v7.359h1.528
	c0.973,0,1.951,0.692,2.275,1.61l0.663,1.587c0.402,0.825,0.204,2.008-0.485,2.698l-1.091,1.09l5.205,5.204l1.093-1.094
	C11.616,35.103,12.266,34.846,12.927,34.846L12.927,34.846z M20.758,29.356c-4.751,0-8.616-3.867-8.616-8.621
	c0-4.745,3.865-8.606,8.616-8.606c4.75,0,8.613,3.861,8.613,8.606C29.371,25.489,25.507,29.356,20.758,29.356L20.758,29.356z
	 M20.758,14.129c-3.648,0-6.616,2.963-6.616,6.606c0,3.651,2.968,6.621,6.616,6.621c3.646,0,6.613-2.97,6.613-6.621
	C27.371,17.092,24.404,14.129,20.758,14.129L20.758,14.129z"/>
</svg>
