<?xml version="1.0" encoding="utf-8"?>
<!-- Generator: Adobe Illustrator 14.0.0, SVG Export Plug-In . SVG Version: 6.00 Build 43363)  -->
<!DOCTYPE svg PUBLIC "-//W3C//DTD SVG 1.1//EN" "http://www.w3.org/Graphics/SVG/1.1/DTD/svg11.dtd">
<svg version="1.1" id="Calque_1" xmlns="http://www.w3.org/2000/svg" xmlns:xlink="http://www.w3.org/1999/xlink" x="0px" y="0px"
	 width="48.756px" height="48.752px" viewBox="0 0 48.756 48.752" enable-background="new 0 0 48.756 48.752" xml:space="preserve">
<path d="M26.292,48.752h-3.828c-0.557,0-0.856-0.382-1.021-0.685c-3.853-0.396-4.314-3.202-4.314-5.321v-6.594
	c0-2.951-1.965-4.985-4.241-7.342c-2.756-2.853-5.88-6.087-5.88-11.637C7.007,12.01,8.7,0,24.378,0
	c15.679,0,17.371,12.01,17.371,17.174c0,5.55-3.125,8.784-5.882,11.638c-2.275,2.355-4.241,4.39-4.241,7.341v6.594
	c0,2.301-0.508,4.943-4.328,5.323C27.139,48.378,26.847,48.752,26.292,48.752L26.292,48.752z M23.026,46.752h2.675
	c0.157-0.29,0.436-0.626,0.948-0.642c2.279-0.085,2.977-0.871,2.977-3.364v-6.594c0-3.76,2.441-6.287,4.803-8.73
	c2.616-2.708,5.32-5.507,5.32-10.248C39.749,11.507,37.752,2,24.378,2S9.007,11.507,9.007,17.174c0,4.741,2.704,7.541,5.319,10.248
	c2.361,2.443,4.802,4.971,4.802,8.73v6.594c0,2.484,0.688,3.271,2.947,3.362C22.588,46.13,22.866,46.465,23.026,46.752
	L23.026,46.752z"/>
<polygon points="30.626,38.734 18.128,38.734 18.128,37.234 30.626,37.234 30.626,38.734 "/>
<polygon points="30.626,41.381 18.128,41.381 18.128,39.881 30.626,39.881 30.626,41.381 "/>
<polygon points="30.626,44.029 18.128,44.029 18.128,42.529 30.626,42.529 30.626,44.029 "/>
</svg>
