<?xml version="1.0" encoding="utf-8"?>
<!-- Generator: Adobe Illustrator 14.0.0, SVG Export Plug-In . SVG Version: 6.00 Build 43363)  -->
<!DOCTYPE svg PUBLIC "-//W3C//DTD SVG 1.1//EN" "http://www.w3.org/Graphics/SVG/1.1/DTD/svg11.dtd">
<svg version="1.1" id="Calque_1" xmlns="http://www.w3.org/2000/svg" xmlns:xlink="http://www.w3.org/1999/xlink" x="0px" y="0px"
	 width="44.063px" height="44.05px" viewBox="0 0 44.063 44.05" enable-background="new 0 0 44.063 44.05" xml:space="preserve">
<path fill="#FFFFFF" d="M33.428,42.787c-0.905,0-1.243-1.004-1.388-1.433c-0.032-0.095-3.331-9.574-10.374-9.574H3
	c-1.654,0-3-1.346-3-3V4.264c0-1.654,1.346-3,3-3h38.063c1.654,0,3,1.346,3,3V28.78c0,1.654-1.346,3-3,3h-5.397
	c-0.553,0-1.004,0.45-1.006,1.003l-0.027,8.15C34.627,42.465,33.975,42.787,33.428,42.787L33.428,42.787z M3,3.264
	c-0.551,0-1,0.449-1,1V28.78c0,0.552,0.449,1,1,1h18.666c5.733,0,9.252,4.791,10.978,8.034l0.017-5.037
	c0.005-1.652,1.353-2.997,3.006-2.997h5.397c0.552,0,1-0.448,1-1V4.264c0-0.551-0.448-1-1-1H3L3,3.264z"/>
</svg>
