<?xml version="1.0" encoding="utf-8"?>
<!-- Generator: Adobe Illustrator 14.0.0, SVG Export Plug-In . SVG Version: 6.00 Build 43363)  -->
<!DOCTYPE svg PUBLIC "-//W3C//DTD SVG 1.1//EN" "http://www.w3.org/Graphics/SVG/1.1/DTD/svg11.dtd">
<svg version="1.1" id="Calque_1" xmlns="http://www.w3.org/2000/svg" xmlns:xlink="http://www.w3.org/1999/xlink" x="0px" y="0px"
	 width="47.508px" height="47.501px" viewBox="0 0 47.508 47.501" enable-background="new 0 0 47.508 47.501" xml:space="preserve">
<path d="M30.681,47.501H11.527c-0.829,0-1.5-0.672-1.5-1.5s0.671-1.5,1.5-1.5h19.154c0.828,0,1.5,0.672,1.5,1.5
	S31.509,47.501,30.681,47.501L30.681,47.501z"/>
<path d="M28.39,42.397H14.398c-0.552,0-1-0.447-1-1c0-3.596-3.363-3.741-3.746-3.746c-0.547-0.007-0.992-0.452-0.992-1v-16.9
	c0-12.227,10.768-15.341,12.525-15.766l5.131-3.79c0.314-0.233,0.739-0.259,1.08-0.069c0.343,0.191,0.542,0.564,0.511,0.956
	l-0.519,6.305l11.128,9.974c0.293,0.262,0.405,0.671,0.287,1.045l-1.256,3.982c-0.09,0.282-0.299,0.51-0.572,0.624l-2.824,1.168
	c-0.371,0.153-0.803,0.069-1.089-0.217l-1.779-1.778l-5.344-0.147l8.058,14.12c0.181,0.317,0.175,0.707-0.016,1.018
	c-0.189,0.312-0.531,0.505-0.898,0.478c-0.226,0.023-1.227,0.024-2.115,0.531c-1.062,0.604-1.577,1.656-1.577,3.216
	C29.39,41.95,28.943,42.397,28.39,42.397L28.39,42.397z M15.332,40.397h12.121c0.368-2.841,2.306-4.112,4.063-4.554L23.32,21.483
	c-0.179-0.314-0.175-0.7,0.011-1.01c0.186-0.31,0.523-0.508,0.885-0.485l7.52,0.207c0.256,0.007,0.499,0.111,0.68,0.292l1.588,1.588
	l1.776-0.734l0.922-2.922L25.684,8.544c-0.233-0.209-0.355-0.515-0.33-0.827l0.379-4.605l-3.528,2.605
	c-0.12,0.089-0.26,0.149-0.406,0.178C21.344,5.984,10.66,8.184,10.66,19.751v15.992C12.504,36.064,14.907,37.291,15.332,40.397
	L15.332,40.397z"/>
</svg>
