<?xml version="1.0" encoding="utf-8"?>
<!-- Generator: Adobe Illustrator 14.0.0, SVG Export Plug-In . SVG Version: 6.00 Build 43363)  -->
<!DOCTYPE svg PUBLIC "-//W3C//DTD SVG 1.1//EN" "http://www.w3.org/Graphics/SVG/1.1/DTD/svg11.dtd">
<svg version="1.1" id="Calque_1" xmlns="http://www.w3.org/2000/svg" xmlns:xlink="http://www.w3.org/1999/xlink" x="0px" y="0px"
	 width="52.322px" height="52.327px" viewBox="0 0 52.322 52.327" enable-background="new 0 0 52.322 52.327" xml:space="preserve">
<path d="M35.049,39.45H3c-1.654,0-3-1.346-3-3V10.867c0-1.654,1.346-3,3-3h40.135c1.654,0,3,1.346,3,3v6.822h-2v-6.822
	c0-0.551-0.448-1-1-1H3c-0.551,0-1,0.449-1,1V36.45c0,0.552,0.449,1,1,1h32.049V39.45L35.049,39.45z"/>
<polygon points="31.305,44.225 14.83,44.225 14.83,42.225 31.305,42.225 31.305,44.225 "/>
<polygon points="26.068,43.46 20.068,43.46 20.068,38.921 26.068,38.921 26.068,43.46 "/>
<path d="M49.322,44.46H38.531c-1.654,0-3-1.346-3-3V21.052c0-1.654,1.346-3,3-3h10.791c1.654,0,3,1.346,3,3V41.46
	C52.322,43.114,50.977,44.46,49.322,44.46L49.322,44.46z M38.531,20.052c-0.552,0-1,0.449-1,1V41.46c0,0.552,0.448,1,1,1h10.791
	c0.552,0,1-0.448,1-1V21.052c0-0.551-0.448-1-1-1H38.531L38.531,20.052z"/>
<path d="M44.918,40.621c0,0.548-0.443,0.991-0.992,0.991c-0.547,0-0.99-0.443-0.99-0.991s0.443-0.99,0.99-0.99
	C44.475,39.631,44.918,40.073,44.918,40.621"/>
<path d="M44.963,22.313h-2.072c-0.276,0-0.5-0.224-0.5-0.5s0.224-0.5,0.5-0.5h2.072c0.276,0,0.5,0.224,0.5,0.5
	S45.239,22.313,44.963,22.313L44.963,22.313z"/>
</svg>
