<?xml version="1.0" encoding="utf-8"?>
<!-- Generator: Adobe Illustrator 14.0.0, SVG Export Plug-In . SVG Version: 6.00 Build 43363)  -->
<!DOCTYPE svg PUBLIC "-//W3C//DTD SVG 1.1//EN" "http://www.w3.org/Graphics/SVG/1.1/DTD/svg11.dtd">
<svg version="1.1" id="Calque_1" xmlns="http://www.w3.org/2000/svg" xmlns:xlink="http://www.w3.org/1999/xlink" x="0px" y="0px"
	 width="56.693px" height="56.693px" viewBox="0 0 56.693 56.693" enable-background="new 0 0 56.693 56.693" xml:space="preserve">
<g>
	<circle fill="#0087AF" cx="28.347" cy="28.347" r="28.347"/>
	<path id="linkedin-square-rounded-icon_1_" fill="#FFFFFF" d="M20.682,41.159h-5.745V22.602h5.745V41.159z M17.782,20.17
		c-1.876,0-3.397-1.532-3.397-3.424c0-1.891,1.521-3.424,3.397-3.424c1.876,0,3.396,1.533,3.396,3.424
		C21.179,18.638,19.658,20.17,17.782,20.17z M42.208,41.159h-5.716c0,0,0-7.069,0-9.742c0-2.671-1.016-4.163-3.128-4.163
		c-2.299,0-3.5,1.553-3.5,4.163c0,2.858,0,9.742,0,9.742h-5.509V22.602h5.509v2.499c0,0,1.656-3.066,5.593-3.066
		c3.934,0,6.751,2.404,6.751,7.375C42.208,34.379,42.208,41.159,42.208,41.159z"/>
</g>
</svg>
