<?xml version="1.0" encoding="utf-8"?>
<!-- Generator: Adobe Illustrator 14.0.0, SVG Export Plug-In . SVG Version: 6.00 Build 43363)  -->
<!DOCTYPE svg PUBLIC "-//W3C//DTD SVG 1.1//EN" "http://www.w3.org/Graphics/SVG/1.1/DTD/svg11.dtd">
<svg version="1.1" id="Calque_1" xmlns="http://www.w3.org/2000/svg" xmlns:xlink="http://www.w3.org/1999/xlink" x="0px" y="0px"
	 width="76.287px" height="76.281px" viewBox="0 0 76.287 76.281" enable-background="new 0 0 76.287 76.281" xml:space="preserve">
<path d="M7.009,66.4C7.008,66.4,7.008,66.4,7.009,66.4c-1.103,0-2.119-0.235-3.022-0.701c-2.218-1.145-3.527-3.943-3.89-8.32
	C-0.775,46.876,4.39,28.625,11.07,23.632c2.247-1.679,4.665-2.495,7.393-2.495c3.352,0,6.719,1.251,9.976,2.461
	c3.196,1.188,6.5,2.416,9.706,2.416c3.206,0,6.51-1.228,9.706-2.416c3.256-1.21,6.623-2.461,9.977-2.461
	c2.729,0,5.146,0.816,7.395,2.495c6.68,4.992,11.844,23.244,10.973,33.747c-0.363,4.377-1.672,7.178-3.891,8.32
	c-0.902,0.466-1.92,0.701-3.021,0.701c-3.969,0-8.734-3.058-13.78-6.293c-5.806-3.727-11.81-7.578-17.356-7.578
	c-5.546,0-11.55,3.853-17.356,7.578C15.743,63.343,10.977,66.4,7.009,66.4L7.009,66.4z M18.462,23.137
	c-2.281,0-4.308,0.686-6.196,2.097C6.158,29.799,1.275,47.404,2.089,57.213c0.294,3.541,1.293,5.924,2.814,6.708
	C5.528,64.243,6.216,64.4,7.007,64.4h0.001c3.382,0,7.907-2.903,12.699-5.979c5.767-3.699,12.303-7.895,18.436-7.895
	c6.133,0,12.67,4.193,18.437,7.895c4.792,3.074,9.317,5.979,12.7,5.979c0.789,0,1.479-0.157,2.104-0.479
	c1.521-0.784,2.52-3.167,2.813-6.708c0.814-9.811-4.067-27.415-10.176-31.979c-1.89-1.411-3.916-2.097-6.196-2.097
	c-2.993,0-6.046,1.135-9.279,2.336c-3.36,1.25-6.837,2.541-10.402,2.541s-7.042-1.292-10.402-2.541
	C24.508,24.272,21.455,23.137,18.462,23.137L18.462,23.137z"/>
<path fill="#000" d="M17.867,49.637c-2.22,0-3.523-1.482-4.783-2.916c-0.348-0.396-0.707-0.806-1.1-1.197
	c-0.393-0.395-0.803-0.754-1.2-1.104c-1.432-1.259-2.913-2.561-2.913-4.777c0-2.22,1.482-3.521,2.915-4.783
	c0.396-0.348,0.806-0.708,1.199-1.101c0.393-0.393,0.752-0.802,1.101-1.199c1.259-1.433,2.562-2.914,4.78-2.914
	c2.218,0,3.52,1.48,4.779,2.913c0.349,0.397,0.709,0.807,1.103,1.201c0.394,0.394,0.804,0.753,1.201,1.102
	c1.432,1.259,2.913,2.561,2.913,4.779c0,2.219-1.481,3.521-2.913,4.779c-0.397,0.35-0.807,0.709-1.201,1.104
	c-0.394,0.394-0.754,0.805-1.103,1.201C21.387,48.157,20.085,49.637,17.867,49.637L17.867,49.637z M17.866,31.646
	c-1.253,0-2.023,0.808-3.278,2.235c-0.376,0.428-0.765,0.869-1.188,1.293c-0.425,0.424-0.865,0.813-1.293,1.188
	c-1.428,1.255-2.235,2.027-2.235,3.281c0,1.252,0.807,2.022,2.233,3.275c0.428,0.377,0.87,0.766,1.294,1.189
	c0.424,0.425,0.812,0.865,1.188,1.293c1.255,1.429,2.026,2.235,3.28,2.235c1.252,0,2.022-0.807,3.276-2.233
	c0.377-0.428,0.767-0.869,1.191-1.295c0.424-0.424,0.866-0.813,1.294-1.189c1.426-1.254,2.233-2.023,2.233-3.277
	c0-1.251-0.807-2.021-2.233-3.276c-0.428-0.376-0.87-0.765-1.294-1.19c-0.425-0.425-0.814-0.866-1.191-1.294
	C19.89,32.454,19.119,31.646,17.866,31.646L17.866,31.646z"/>
<path fill="#000" d="M19.451,35.659c0,0.875-0.709,1.584-1.584,1.584c-0.874,0-1.583-0.709-1.583-1.584s0.709-1.584,1.583-1.584
	S19.451,34.784,19.451,35.659"/>
<path fill="#000" d="M21.849,41.227c-0.875,0-1.584-0.709-1.584-1.584s0.709-1.583,1.584-1.583s1.584,0.708,1.584,1.583
	S22.724,41.227,21.849,41.227"/>
<path fill="#000" d="M54.067,38.192c-1.051,0-1.9-0.851-1.9-1.9c0-1.05,0.852-1.901,1.9-1.901c1.051,0,1.9,0.851,1.9,1.901
	C55.97,37.341,55.118,38.192,54.067,38.192"/>
<path fill="#000" d="M60.726,35.369c-1.05,0-1.899-0.851-1.899-1.9c0-1.05,0.851-1.901,1.899-1.901c1.051,0,1.9,0.851,1.9,1.901
	C62.626,34.518,61.776,35.369,60.726,35.369"/>
<g>
	<path d="M54.644,44.432c-1.049,0-1.898-0.853-1.898-1.9c0-1.051,0.85-1.901,1.898-1.901c1.051,0,1.9,0.851,1.9,1.901
		C56.544,43.58,55.694,44.432,54.644,44.432"/>
	<path d="M54.644,44.932c-1.322,0-2.398-1.078-2.398-2.4c0-1.324,1.076-2.401,2.398-2.401c1.323,0,2.4,1.077,2.4,2.401
		C57.044,43.854,55.967,44.932,54.644,44.932L54.644,44.932z M54.644,41.129c-0.771,0-1.398,0.628-1.398,1.4s0.628,1.4,1.398,1.4
		c0.772,0,1.4-0.628,1.4-1.4C56.044,41.758,55.416,41.129,54.644,41.129L54.644,41.129z"/>
</g>
<g>
	<path d="M61.302,41.607c-1.05,0-1.9-0.852-1.9-1.9c0-1.05,0.852-1.901,1.9-1.901c1.051,0,1.9,0.851,1.9,1.901
		S62.353,41.607,61.302,41.607"/>
	<path d="M61.302,42.107c-1.322,0-2.4-1.078-2.4-2.4c0-1.324,1.078-2.401,2.4-2.401c1.323,0,2.4,1.077,2.4,2.401
		S62.625,42.107,61.302,42.107L61.302,42.107z M61.302,38.307c-0.771,0-1.4,0.628-1.4,1.401s0.629,1.399,1.4,1.399
		c0.772,0,1.4-0.627,1.4-1.399S62.074,38.307,61.302,38.307L61.302,38.307z"/>
</g>
<path fill="#000" d="M16.283,43.625c0-0.875,0.709-1.584,1.584-1.584c0.874,0,1.583,0.709,1.583,1.584s-0.709,1.584-1.583,1.584
	C16.992,45.208,16.283,44.5,16.283,43.625"/>
<path fill="#000" d="M13.884,38.058c0.875,0,1.584,0.709,1.584,1.584c0,0.873-0.709,1.582-1.584,1.582S12.3,40.516,12.3,39.643
	C12.3,38.768,13.009,38.058,13.884,38.058"/>
<path d="M35.972,41.227H33.93c-0.552,0-1-0.447-1-1c0-0.552,0.448-1,1-1h2.042c0.552,0,1,0.448,1,1
	C36.972,40.779,36.524,41.227,35.972,41.227L35.972,41.227z"/>
<path fill="#000" d="M42.356,41.227h-2.041c-0.553,0-1-0.447-1-1c0-0.552,0.447-1,1-1h2.041c0.554,0,1,0.448,1,1
	C43.356,40.779,42.91,41.227,42.356,41.227L42.356,41.227z"/>
<path d="M39.144,27.153h-2c0-4.843,3.115-7.459,5.863-9.768c2.6-2.183,4.844-4.068,4.844-7.505h2c0,4.37-2.826,6.742-5.558,9.037
	C41.646,21.141,39.144,23.242,39.144,27.153L39.144,27.153z"/>
</svg>
