<?xml version="1.0" encoding="utf-8"?>
<!-- Generator: Adobe Illustrator 15.0.0, SVG Export Plug-In . SVG Version: 6.00 Build 0)  -->
<!DOCTYPE svg PUBLIC "-//W3C//DTD SVG 1.1//EN" "http://www.w3.org/Graphics/SVG/1.1/DTD/svg11.dtd">
<svg version="1.1" id="Calque_1" xmlns="http://www.w3.org/2000/svg" xmlns:xlink="http://www.w3.org/1999/xlink" x="0px" y="0px"
	 width="121.37px" height="59.37px" viewBox="0 31.005 121.37 59.37" enable-background="new 0 31.005 121.37 59.37"
	 xml:space="preserve">
<path fill="#E85146" d="M0.113,33.778c2.738,6.837,2.866,14.444,2.636,21.705c-0.241,7.587-1.13,15.133-1.48,22.715
	c-0.13,2.815,4.246,2.811,4.376,0c0.357-7.723,1.272-15.41,1.494-23.143c0.213-7.468,0.009-15.414-2.805-22.441
	c-0.438-1.096-1.46-1.867-2.691-1.528C0.599,31.373-0.329,32.675,0.113,33.778"/>
<path fill="#E85146" d="M5.872,60.003c1.798-0.553,3.629-0.98,5.517-0.997c1.354-0.013,2.879,0.209,3.886,0.799
	c1.086,0.637,1.744,1.282,2.316,2.562c0.564,1.26,0.744,3.162,0.69,4.734c-0.064,1.828-0.298,4.004-1.076,5.586
	c-0.598,1.214-1.223,1.854-2.348,2.376c0.319-0.147-0.306,0.104-0.442,0.144c-0.128,0.037-1.033,0.205-0.626,0.158
	c-0.272,0.032-0.548,0.043-0.823,0.043c-0.149,0-1.074-0.07-0.657-0.016c-0.62-0.084-1.227-0.258-1.814-0.467
	c-0.204-0.073-0.097-0.014-0.523-0.238c-0.304-0.159-0.598-0.331-0.887-0.518c-0.142-0.092-0.282-0.188-0.416-0.291
	c0.295,0.228-0.107-0.102-0.177-0.168c-0.235-0.229-0.468-0.455-0.683-0.703c-0.054-0.063-0.242-0.332-0.014-0.012
	c-0.109-0.154-0.214-0.313-0.31-0.478c-0.063-0.106-0.121-0.218-0.181-0.328c-0.273-0.507,0.106,0.386-0.07-0.157
	c-0.054-0.162-0.234-1-0.17-0.492c-0.039-0.307-0.038-0.619-0.014-0.929c-0.033,0.431,0.125-0.473,0.192-0.659
	c0.117-0.33-0.132,0.269,0.023-0.06c0.113-0.235,0.247-0.46,0.386-0.681c1.499-2.396-2.286-4.594-3.78-2.209
	c-4.523,7.224,4.449,14.076,11.31,12.522c4.528-1.024,6.587-5.241,7.188-9.474c0.625-4.393,0.412-9.589-3.139-12.775
	c-3.961-3.555-9.812-2.944-14.521-1.497C2.023,56.607,3.168,60.833,5.872,60.003"/>
<path fill="#E85146" d="M24.271,59.729c1.634,5.934,1.346,12.094,1.073,18.18c-0.125,2.815,4.251,2.811,4.377,0
	c0.215-4.814,0.378-9.814,2.164-14.357c0.78-1.987,2.032-4.098,3.84-5.306c0.501-0.335,1.023-0.643,1.607-0.799
	c0.13-0.035,0.374-0.094,0.451-0.103c0.247-0.027,0.203-0.085,0.142-0.028c0.157-0.145,0.179,0.257-0.195-0.234
	c-0.301-0.395-0.207-0.725-0.376-1.125c-0.004-0.013,0.059-0.227,0.085-0.218c0.088,0.033-0.666,0.508-0.57,0.446
	c-2.362,1.518-0.169,5.309,2.21,3.779c1.32-0.848,2.633-2.068,2.631-3.767c-0.001-1.462-1.059-2.641-2.418-3.049
	c-3.508-1.053-7.106,1.902-9.061,4.479c-4.319,5.695-4.579,13.433-4.886,20.281h4.377c0.29-6.478,0.508-13.029-1.23-19.343
	C27.744,55.854,23.52,57.005,24.271,59.729"/>
<path fill="#E85146" d="M57.664,57.145c-2.924-3.769-7.794-3.472-11.426-0.927c-3.879,2.718-6.859,6.975-8.26,11.488
	c-1.276,4.113-0.805,9.186,3.565,11.192c5.537,2.541,10.609-1.274,13.578-5.806c3.149-4.803,5.475-11.96,2.975-17.492
	c-0.667-1.475-3.084-1.385-3.78,0c-3.788,7.548,0.489,14.986,1.125,22.663c0.23,2.788,4.609,2.813,4.376,0
	c-0.299-3.606-1.352-7.063-2.106-10.587c-0.692-3.241-1.159-6.792,0.384-9.867h-3.78c-0.187-0.413,0.072,0.214,0.083,0.252
	c0.062,0.209,0.123,0.416,0.173,0.629c0.137,0.595,0.125,0.515,0.147,1.027c0.036,0.921,0,2.018-0.121,2.788
	c-0.341,2.203-1.062,4.373-2.08,6.353c-0.982,1.909-2.21,3.737-3.88,5.112c-0.476,0.391-1.523,1.006-1.972,1.152
	c-0.765,0.252-1.439,0.336-2.025,0.229c-0.446-0.082-0.842-0.21-1.126-0.344c-0.193-0.09-1.035-0.686-0.719-0.407
	c-0.112-0.099-0.679-0.733-0.374-0.327c-0.146-0.195-0.585-1.129-0.431-0.697c-0.446-1.248-0.367-2.492-0.032-3.853
	c0.836-3.399,2.86-6.563,5.541-8.962c0.661-0.59,1.09-0.925,2.014-1.438c0.177-0.097,0.356-0.188,0.539-0.277
	c0.234-0.106,0.24-0.112,0.018-0.018c0.119-0.048,0.238-0.094,0.359-0.136c0.179-0.057,0.357-0.117,0.54-0.164
	c0.108-0.029,0.885-0.162,0.31-0.094c0.35-0.042,0.7-0.042,1.052-0.021c-0.552-0.034-0.02-0.01,0.104,0.028
	c0.224,0.068,0.449,0.119,0.667,0.207c-0.558-0.229,0.826,0.616,0.456,0.304c0.38,0.322,0.707,0.694,1.011,1.086
	c0.725,0.935,2.332,0.762,3.094,0C58.587,59.316,58.392,58.081,57.664,57.145"/>
<path fill="#E85146" d="M60.362,59.612c1.005,5.936,0.833,11.998,1.84,17.939c1.407-0.389,2.813-0.776,4.221-1.164
	c-0.757-2.54-0.845-5.028-0.733-7.95c0.105-2.847,0.461-6.003,2.153-8.255c-0.209,0.28,0.067-0.072,0.126-0.136
	c0.12-0.128,0.24-0.249,0.363-0.372c0.098-0.093,0.205-0.189,0.311-0.27c-0.287,0.22-0.002,0.019,0.053-0.014
	c0.146-0.087,0.291-0.173,0.443-0.248c0.338-0.167-0.472,0.137,0.146-0.053c0.134-0.042,0.268-0.078,0.405-0.114
	c0.604-0.154-0.36-0.006,0.285-0.051c0.394-0.025,0.808-0.022,1.195,0.036c-0.459-0.069,0.188,0.072,0.342,0.125
	c-0.398-0.136,0.359,0.207,0.493,0.298c0.065,0.044,0.306,0.256,0.026,0.019c0.154,0.133,0.303,0.276,0.443,0.424
	c0.742,0.773,1.43,2.16,1.842,3.353c0.504,1.466,0.889,3.181,1.06,4.599c0.218,1.776,0.269,3.604,0.065,5.383
	c-0.047,0.426,0.088-0.496-0.024,0.191c-0.035,0.207-0.071,0.414-0.116,0.617c-0.068,0.316-0.16,0.621-0.246,0.932
	c-0.162,0.59,0.096-0.076-0.164,0.398c-0.354,0.654,0.107-0.002-0.226,0.322c-2.022,1.967,1.073,5.061,3.095,3.094
	c2.377-2.309,2.327-6.678,2.108-9.719c-0.288-4.009-1.191-8.396-3.746-11.614c-2.333-2.94-6.604-3.805-9.806-1.659
	c-3.31,2.218-4.363,6.45-4.809,10.173c-0.448,3.77-0.398,7.986,0.693,11.654c0.818,2.746,4.684,1.568,4.221-1.164
	c-1.005-5.936-0.835-11.997-1.841-17.939c-0.198-1.165-1.636-1.817-2.692-1.527C60.656,57.259,60.165,58.443,60.362,59.612"/>
<path fill="#E85146" d="M94.523,35.724c3.627,6.244,4.277,14.086,4.72,21.142c0.479,7.654,0.303,15.333,0.767,22.988
	c0.17,2.797,4.549,2.816,4.377,0c-0.757-12.469,0.234-25.22-2.699-37.469c-0.737-3.079-1.789-6.126-3.383-8.871
	C96.891,31.08,93.105,33.281,94.523,35.724"/>
<path fill="#E85146" d="M99.246,55.756c-3.684-1.813-8.221-2.874-11.883-0.403c-3.412,2.298-4.706,6.419-5.084,10.327
	c-0.373,3.876,0.381,8.218,3.471,10.889c2.578,2.229,6.105,2.861,9.371,1.995c4.162-1.104,7.165-4.338,8.72-8.243
	c0.437-1.099-0.478-2.402-1.528-2.691c-1.244-0.342-2.252,0.427-2.69,1.527c-0.886,2.221-2.769,4.117-4.731,4.889
	c-2.041,0.802-3.983,0.736-5.644-0.297c-0.822-0.515-1.435-1.222-1.938-2.271c-0.553-1.151-0.773-2.644-0.75-3.993
	c0.045-2.635,0.521-5.91,2.396-7.795c0.843-0.85,1.872-1.355,3.03-1.426c1.769-0.105,3.486,0.502,5.052,1.271
	C99.555,60.774,101.775,57.001,99.246,55.756"/>
<rect x="110.231" y="36.137" transform="matrix(0.9552 -0.296 0.296 0.9552 -6.8002 34.6018)" fill="#E85146" width="1.267" height="7.24"/>
<polygon fill="#E85146" points="111.225,35.862 116.822,34.127 117.146,35.174 114.947,35.854 116.766,41.725 115.555,42.1 
	113.736,36.229 111.547,36.907 "/>
<path fill="#E85146" d="M113.502,31.006c-4.345,0-7.868,3.522-7.868,7.867c0,4.346,3.523,7.868,7.868,7.868
	c4.346,0,7.868-3.522,7.868-7.868C121.371,34.528,117.848,31.006,113.502,31.006 M113.502,45.586c-3.707,0-6.712-3.005-6.712-6.713
	c0-3.706,3.005-6.711,6.712-6.711s6.713,3.005,6.713,6.711C120.215,42.581,117.209,45.586,113.502,45.586"/>
<path fill="#E85146" d="M1.465,90.247c-0.242-0.084-0.456-0.215-0.643-0.396l0.146-0.274c0.199,0.176,0.399,0.301,0.604,0.375
	c0.204,0.075,0.446,0.112,0.727,0.112c0.337,0,0.6-0.069,0.787-0.208s0.28-0.332,0.28-0.583c0-0.146-0.045-0.267-0.136-0.356
	c-0.094-0.092-0.209-0.164-0.35-0.217c-0.141-0.052-0.327-0.105-0.559-0.156c-0.308-0.066-0.557-0.139-0.75-0.211
	c-0.192-0.074-0.355-0.183-0.486-0.328s-0.196-0.342-0.196-0.584c0-0.226,0.058-0.424,0.174-0.596
	c0.116-0.173,0.281-0.307,0.497-0.398c0.215-0.094,0.465-0.141,0.749-0.141c0.274,0,0.526,0.043,0.758,0.133
	C3.3,86.506,3.5,86.635,3.669,86.809l-0.146,0.273c-0.188-0.168-0.378-0.291-0.573-0.369c-0.195-0.08-0.408-0.117-0.641-0.117
	c-0.336,0-0.599,0.07-0.789,0.218c-0.188,0.146-0.282,0.347-0.282,0.603c0,0.221,0.082,0.385,0.246,0.492
	c0.165,0.109,0.407,0.201,0.725,0.275l0.163,0.039c0.3,0.072,0.538,0.141,0.714,0.208c0.175,0.067,0.325,0.169,0.449,0.304
	c0.123,0.135,0.185,0.312,0.185,0.539c0,0.217-0.058,0.409-0.174,0.575c-0.116,0.167-0.281,0.296-0.497,0.387
	c-0.215,0.093-0.464,0.14-0.75,0.14C1.984,90.374,1.707,90.331,1.465,90.247"/>
<path fill="#E85146" d="M14.245,90.127c-0.268-0.166-0.474-0.4-0.618-0.707c-0.144-0.31-0.215-0.672-0.215-1.09
	c0-0.42,0.07-0.783,0.212-1.09c0.143-0.308,0.348-0.543,0.615-0.709c0.268-0.164,0.584-0.246,0.953-0.246
	c0.366,0,0.684,0.082,0.954,0.246c0.269,0.166,0.476,0.399,0.617,0.707c0.143,0.305,0.214,0.666,0.214,1.086
	c0,0.418-0.073,0.782-0.217,1.092c-0.144,0.31-0.349,0.545-0.618,0.711c-0.267,0.164-0.584,0.246-0.951,0.246
	C14.829,90.374,14.514,90.292,14.245,90.127 M16.239,89.61c0.249-0.304,0.374-0.732,0.374-1.285c0-0.555-0.124-0.98-0.371-1.281
	c-0.247-0.299-0.598-0.447-1.049-0.447c-0.45,0-0.799,0.148-1.047,0.451c-0.25,0.301-0.374,0.728-0.374,1.277
	c0,0.551,0.125,0.979,0.374,1.282c0.249,0.306,0.597,0.456,1.047,0.456C15.641,90.063,15.99,89.915,16.239,89.61"/>
<polygon fill="#E85146" points="26.923,90.329 26.923,86.331 27.271,86.331 27.271,90.025 29.336,90.025 29.336,90.329 "/>
<path fill="#E85146" d="M39.229,89.973c-0.264-0.268-0.396-0.662-0.396-1.184v-2.459h0.349v2.5c0,0.822,0.402,1.233,1.207,1.233
	c0.394,0,0.692-0.104,0.896-0.312c0.204-0.207,0.305-0.517,0.305-0.924v-2.498h0.343v2.459c0,0.521-0.131,0.914-0.394,1.183
	c-0.263,0.269-0.646,0.401-1.151,0.401C39.879,90.374,39.493,90.241,39.229,89.973"/>
<polygon fill="#E85146" points="52.984,90.329 52.984,86.633 51.552,86.633 51.552,86.331 54.765,86.331 54.765,86.633 
	53.332,86.633 53.332,90.329 "/>
<rect x="64.411" y="86.331" fill="#E85146" width="0.349" height="3.998"/>
<path fill="#E85146" d="M75.54,90.127c-0.271-0.166-0.476-0.4-0.619-0.707c-0.144-0.31-0.217-0.672-0.217-1.09
	c0-0.42,0.071-0.783,0.215-1.09c0.142-0.308,0.349-0.543,0.615-0.709c0.267-0.164,0.584-0.246,0.95-0.246
	c0.365,0,0.687,0.082,0.955,0.246c0.271,0.166,0.477,0.399,0.617,0.707c0.143,0.305,0.213,0.666,0.213,1.086
	c0,0.418-0.07,0.782-0.215,1.092c-0.146,0.31-0.352,0.545-0.619,0.711c-0.267,0.164-0.586,0.246-0.951,0.246
	C76.122,90.374,75.807,90.292,75.54,90.127 M77.533,89.61c0.246-0.304,0.373-0.732,0.373-1.285c0-0.555-0.124-0.98-0.371-1.281
	c-0.246-0.299-0.598-0.447-1.051-0.447c-0.449,0-0.799,0.148-1.047,0.451c-0.25,0.301-0.373,0.728-0.373,1.277
	c0,0.551,0.123,0.979,0.373,1.282c0.248,0.306,0.598,0.456,1.047,0.456S77.285,89.915,77.533,89.61"/>
<polygon fill="#E85146" points="91.021,86.331 91.35,86.331 91.35,90.329 91.079,90.329 88.542,86.92 88.542,90.329 88.214,90.329 
	88.214,86.331 88.491,86.331 91.021,89.738 "/>
<path fill="#E85146" d="M101.852,90.247c-0.24-0.084-0.455-0.215-0.644-0.396l0.147-0.274c0.197,0.176,0.397,0.301,0.604,0.375
	c0.204,0.075,0.445,0.112,0.729,0.112c0.336,0,0.599-0.069,0.785-0.208c0.188-0.139,0.28-0.332,0.28-0.583
	c0-0.146-0.047-0.267-0.138-0.356c-0.092-0.092-0.208-0.164-0.348-0.217c-0.143-0.052-0.328-0.105-0.561-0.156
	c-0.307-0.066-0.557-0.139-0.749-0.211c-0.192-0.074-0.354-0.183-0.485-0.328c-0.132-0.146-0.197-0.342-0.197-0.584
	c0-0.226,0.059-0.424,0.176-0.596c0.115-0.173,0.281-0.307,0.496-0.398c0.216-0.094,0.465-0.141,0.75-0.141
	c0.271,0,0.525,0.043,0.758,0.133c0.23,0.088,0.432,0.217,0.602,0.391l-0.146,0.273c-0.188-0.168-0.378-0.291-0.573-0.369
	c-0.194-0.08-0.407-0.117-0.64-0.117c-0.338,0-0.602,0.07-0.79,0.218c-0.188,0.146-0.282,0.347-0.282,0.603
	c0,0.221,0.082,0.385,0.247,0.492c0.164,0.109,0.405,0.201,0.724,0.275l0.163,0.039c0.3,0.072,0.537,0.141,0.714,0.208
	c0.176,0.067,0.325,0.169,0.449,0.304c0.123,0.135,0.186,0.312,0.186,0.539c0,0.217-0.059,0.409-0.174,0.575
	c-0.117,0.167-0.281,0.296-0.498,0.387c-0.217,0.093-0.465,0.14-0.748,0.14C102.372,90.374,102.094,90.331,101.852,90.247"/>
</svg>
