<?xml version="1.0" encoding="utf-8"?>
<!-- Generator: Adobe Illustrator 14.0.0, SVG Export Plug-In . SVG Version: 6.00 Build 43363)  -->
<!DOCTYPE svg PUBLIC "-//W3C//DTD SVG 1.1//EN" "http://www.w3.org/Graphics/SVG/1.1/DTD/svg11.dtd">
<svg version="1.1" id="Calque_1" xmlns="http://www.w3.org/2000/svg" xmlns:xlink="http://www.w3.org/1999/xlink" x="0px" y="0px"
	 width="72px" height="72px" viewBox="0 0 72 72" enable-background="new 0 0 72 72" xml:space="preserve">
<g id="Calque_1_1_">
	<path fill="#252528" d="M70,62H2c-1.103,0-2-0.896-2-2V12c0-1.103,0.897-2,2-2h68c1.104,0,2,0.897,2,2v48
		C72,61.104,71.104,62,70,62L70,62z M2,12v48h68.001L70,12H2L2,12z"/>
	<path fill="#252528" d="M68,58H4V14h64V58L68,58z M6,56h60V16H6V56L6,56z"/>
</g>
<g id="Calque_2">
	<path fill="#000" d="M35.999,50.504c-5.612,0-11.024-2.436-14.849-6.681c-0.37-0.41-0.336-1.042,0.074-1.412
		c0.41-0.369,1.042-0.338,1.413,0.073c3.496,3.882,8.242,6.02,13.362,6.02c5.121,0,9.867-2.138,13.362-6.02
		c0.369-0.411,1.005-0.441,1.412-0.073c0.412,0.37,0.443,1.002,0.074,1.412C47.023,48.068,41.611,50.504,35.999,50.504
		L35.999,50.504z"/>
	<path fill="#000" d="M23.299,29.337c-1.719,0-3.117-1.398-3.117-3.117c0-1.719,1.398-3.117,3.117-3.117
		c1.719,0,3.117,1.398,3.117,3.117C26.416,27.939,25.018,29.337,23.299,29.337L23.299,29.337z M23.299,25.104
		c-0.616,0-1.117,0.501-1.117,1.117c0,0.616,0.501,1.117,1.117,1.117c0.616,0,1.117-0.501,1.117-1.117
		C24.416,25.605,23.915,25.104,23.299,25.104L23.299,25.104z"/>
	<path fill="#000" d="M48.7,29.337c-1.72,0-3.117-1.398-3.117-3.117c0-1.719,1.397-3.117,3.117-3.117
		c1.719,0,3.116,1.398,3.116,3.117C51.816,27.939,50.419,29.337,48.7,29.337L48.7,29.337z M48.7,25.104
		c-0.616,0-1.117,0.501-1.117,1.117c0,0.616,0.501,1.117,1.117,1.117c0.614,0,1.116-0.501,1.116-1.117
		C49.816,25.605,49.314,25.104,48.7,25.104L48.7,25.104z"/>
</g>
</svg>
