<?xml version="1.0" encoding="utf-8"?>
<!-- Generator: Adobe Illustrator 14.0.0, SVG Export Plug-In . SVG Version: 6.00 Build 43363)  -->
<!DOCTYPE svg PUBLIC "-//W3C//DTD SVG 1.1//EN" "http://www.w3.org/Graphics/SVG/1.1/DTD/svg11.dtd">
<svg version="1.1" id="Calque_1" xmlns="http://www.w3.org/2000/svg" xmlns:xlink="http://www.w3.org/1999/xlink" x="0px" y="0px"
	 width="42.35px" height="42.354px" viewBox="0 0 42.35 42.354" enable-background="new 0 0 42.35 42.354" xml:space="preserve">
<path fill="#FFFFFF" d="M21.175,42.354c-0.229,0-0.458-0.078-0.643-0.234c-0.647-0.543-15.84-13.425-15.84-23.504
	C4.692,8.351,12.086,0,21.175,0s16.483,8.351,16.483,18.616c0,10.08-15.193,22.961-15.84,23.504
	C21.632,42.276,21.403,42.354,21.175,42.354L21.175,42.354z M21.175,2C13.189,2,6.692,9.454,6.692,18.616
	c0,8.053,11.597,18.85,14.483,21.413c2.887-2.563,14.483-13.359,14.483-21.413C35.658,9.454,29.161,2,21.175,2L21.175,2z"/>
<path fill="#FFFFFF" d="M21.176,23.619c-4.125,0-7.481-3.356-7.481-7.482c0-4.125,3.356-7.48,7.481-7.48
	c4.125,0,7.481,3.355,7.481,7.48C28.657,20.263,25.301,23.619,21.176,23.619L21.176,23.619z M21.176,10.657
	c-3.022,0-5.481,2.458-5.481,5.48c0,3.023,2.459,5.482,5.481,5.482s5.481-2.459,5.481-5.482
	C26.657,13.116,24.198,10.657,21.176,10.657L21.176,10.657z"/>
</svg>
