<?xml version="1.0" encoding="utf-8"?>
<!-- Generator: Adobe Illustrator 14.0.0, SVG Export Plug-In . SVG Version: 6.00 Build 43363)  -->
<!DOCTYPE svg PUBLIC "-//W3C//DTD SVG 1.1//EN" "http://www.w3.org/Graphics/SVG/1.1/DTD/svg11.dtd">
<svg version="1.1" id="Calque_1" xmlns="http://www.w3.org/2000/svg" xmlns:xlink="http://www.w3.org/1999/xlink" x="0px" y="0px"
	 width="46.687px" height="46.682px" viewBox="0 0 46.687 46.682" enable-background="new 0 0 46.687 46.682" xml:space="preserve">
<path d="M36.842,32.735l-14.5-5.202H12.92c-4.913,0-8.213-3.615-8.213-6.992v-5.528c0-3.377,3.3-6.992,8.213-6.992h9.422l14.5-5.203
	l0.676,1.883L22.854,9.962c-0.108,0.039-0.223,0.059-0.338,0.059H12.92c-3.661,0-6.213,2.631-6.213,4.992v5.528
	c0,2.361,2.552,4.992,6.213,4.992h9.596c0.115,0,0.229,0.02,0.338,0.059l14.664,5.261L36.842,32.735L36.842,32.735z"/>
<path d="M38.305,25.456c-0.247,0-0.495-0.091-0.688-0.274c-0.4-0.381-0.417-1.014-0.037-1.414c1.548-1.629,2.399-3.757,2.399-5.99
	c0-2.234-0.852-4.362-2.399-5.992c-0.38-0.4-0.363-1.034,0.037-1.414c0.401-0.38,1.034-0.363,1.414,0.037
	c1.901,2.003,2.948,4.62,2.948,7.369s-1.047,5.365-2.948,7.367C38.833,25.351,38.57,25.456,38.305,25.456L38.305,25.456z"/>
<path d="M36.631,35.553c-0.035,0-0.071-0.002-0.107-0.006c-0.549-0.059-0.946-0.552-0.888-1.101
	c0.646-6.028,0.974-12.104,0.974-18.059c0-5.014-0.236-10.162-0.701-15.298c-0.05-0.55,0.355-1.037,0.906-1.086
	c0.548-0.043,1.036,0.356,1.086,0.906c0.471,5.197,0.709,10.405,0.709,15.479c0,6.025-0.331,12.173-0.985,18.271
	C37.57,35.172,37.136,35.553,36.631,35.553L36.631,35.553z"/>
<path d="M23.333,46.682c-0.147,0-0.294-0.013-0.44-0.038c-0.766-0.135-1.442-0.618-1.855-1.326l-4.974-8.533
	c-0.622-1.067-1.23-2.865-1.383-4.092l-0.752-6.036c-0.068-0.549,0.32-1.048,0.869-1.116c0.545-0.063,1.047,0.32,1.116,0.868
	l0.752,6.036c0.121,0.966,0.637,2.492,1.126,3.332l4.974,8.533c0.118,0.202,0.286,0.331,0.474,0.364
	c0.186,0.033,0.388-0.031,0.567-0.181l2.864-2.381c0.19-0.159,0.302-0.37,0.312-0.596c0.011-0.226-0.08-0.446-0.255-0.621
	l-5.702-5.701c-0.891-0.889-1.878-2.532-2.249-3.742l-1.415-4.628c-0.162-0.527,0.136-1.087,0.664-1.248
	c0.527-0.166,1.087,0.136,1.249,0.664l1.415,4.628c0.273,0.894,1.091,2.255,1.749,2.911l5.703,5.702
	c0.577,0.577,0.875,1.333,0.839,2.127s-0.402,1.52-1.03,2.041l-2.863,2.381C24.577,46.455,23.956,46.682,23.333,46.682
	L23.333,46.682z"/>
</svg>
