<?xml version="1.0" encoding="utf-8"?>
<!-- Generator: Adobe Illustrator 14.0.0, SVG Export Plug-In . SVG Version: 6.00 Build 43363)  -->
<!DOCTYPE svg PUBLIC "-//W3C//DTD SVG 1.1//EN" "http://www.w3.org/Graphics/SVG/1.1/DTD/svg11.dtd">
<svg version="1.1" id="Calque_1" xmlns="http://www.w3.org/2000/svg" xmlns:xlink="http://www.w3.org/1999/xlink" x="0px" y="0px"
	 width="53.951px" height="53.943px" viewBox="0 0 53.951 53.943" enable-background="new 0 0 53.951 53.943" xml:space="preserve">
<path d="M50.951,46.393H3c-1.654,0-3-1.346-3-3V10.55c0-1.654,1.346-3,3-3h47.951c1.654,0,3,1.346,3,3v32.843
	C53.951,45.047,52.605,46.393,50.951,46.393L50.951,46.393z M3,9.55c-0.551,0-1,0.449-1,1v32.843c0,0.552,0.449,1,1,1h47.951
	c0.552,0,1-0.448,1-1V10.55c0-0.551-0.448-1-1-1H3L3,9.55z"/>
<polygon points="52.951,40.623 1,40.623 1,38.623 52.951,38.623 52.951,40.623 "/>
<path d="M23.002,19.243c0-0.55,0.39-0.775,0.866-0.5l10.215,5.898c0.477,0.275,0.477,0.725,0,1l-10.215,5.896
	c-0.477,0.275-0.866,0.05-0.866-0.5V19.243z"/>
</svg>
